<svg width="40" height="40" viewBox="0 0 40 40" fill="none" xmlns="http://www.w3.org/2000/svg">
<path fill-rule="evenodd" clip-rule="evenodd" d="M8.9174 21.6403C8.98559 21.7088 9.04784 21.7809 9.10414 21.856L20 32.7876L30.8958 21.856C30.952 21.781 31.0141 21.709 31.0822 21.6407L33.9963 18.717C36.6679 16.0365 36.6679 11.688 33.9963 9.00759C31.3283 6.3308 27.0053 6.3308 24.3373 9.00759L21.4873 11.8669C20.6667 12.6902 19.3333 12.6902 18.5126 11.8669L15.6627 9.00759C12.9946 6.3308 8.67164 6.3308 6.00361 9.00759C3.33197 11.688 3.33197 16.0365 6.00361 18.717L8.9174 21.6403ZM4.58708 20.1289C1.13748 16.6679 1.13748 11.0566 4.58708 7.5957C8.03668 4.13477 13.6296 4.13477 17.0792 7.5957L19.9291 10.455C19.9682 10.4942 20.0317 10.4942 20.0708 10.455L22.9207 7.5957C26.3703 4.13477 31.9632 4.13477 35.4128 7.5957C38.8624 11.0566 38.8624 16.6679 35.4128 20.1289L32.4991 23.0521C32.4952 23.056 32.4952 23.0624 32.4991 23.0663C32.503 23.0702 32.503 23.0766 32.4991 23.0805L21.0461 34.5711C20.7576 34.8606 20.3782 35.0036 20 34.9999C19.6217 35.0036 19.2424 34.8606 18.9538 34.5711L7.50078 23.0805C7.49687 23.0766 7.49687 23.0702 7.50078 23.0663C7.50469 23.0624 7.50469 23.056 7.50078 23.0521L4.58708 20.1289Z" fill="url(#paint0_linear_583_4513)"/>
<defs>
<linearGradient id="paint0_linear_583_4513" x1="1.99988" y1="35" x2="41.9985" y2="28.0663" gradientUnits="userSpaceOnUse">
<stop stopColor="#9D9DE6"/>
<stop offset="0.427083" stopColor="#567FE3"/>
<stop offset="0.885417" stopColor="#9664C8"/>
</linearGradient>
</defs>
</svg>
