<svg width="40" height="40" viewBox="0 0 40 40" fill="none" xmlns="http://www.w3.org/2000/svg">
<path fill-rule="evenodd" clip-rule="evenodd" d="M8.91753 21.6403C8.98572 21.7088 9.04796 21.7809 9.10426 21.856L20.0001 32.7876L30.8959 21.856C30.9521 21.781 31.0142 21.709 31.0823 21.6407L33.9964 18.717C36.6681 16.0365 36.6681 11.688 33.9964 9.00759C31.3284 6.3308 27.0054 6.3308 24.3374 9.00759L21.4874 11.8669C20.6668 12.6902 19.3334 12.6902 18.5127 11.8669L15.6628 9.00759C12.9948 6.3308 8.67176 6.3308 6.00373 9.00759C3.33209 11.688 3.33209 16.0365 6.00373 18.717L8.91753 21.6403ZM4.5872 20.1289C1.1376 16.6679 1.1376 11.0566 4.5872 7.5957C8.0368 4.13477 13.6297 4.13477 17.0793 7.5957L19.9293 10.455C19.9683 10.4942 20.0318 10.4942 20.0709 10.455L22.9208 7.5957C26.3704 4.13477 31.9634 4.13477 35.413 7.5957C38.8626 11.0566 38.8626 16.6679 35.413 20.1289L32.4993 23.0521C32.4954 23.056 32.4954 23.0624 32.4993 23.0663C32.5032 23.0702 32.5032 23.0766 32.4993 23.0805L21.0463 34.5711C20.7577 34.8606 20.3783 35.0036 20.0001 34.9999C19.6219 35.0036 19.2425 34.8606 18.9539 34.5711L7.5009 23.0805C7.49699 23.0766 7.49699 23.0702 7.5009 23.0663C7.50481 23.0624 7.50481 23.056 7.5009 23.0521L4.5872 20.1289Z" fill="url(#paint0_linear_625_934)"/>
<defs>
<linearGradient id="paint0_linear_625_934" x1="2" y1="35" x2="41.9987" y2="28.0663" gradientUnits="userSpaceOnUse">
<stop stop-color="#9D9DE6"/>
<stop offset="0.427083" stop-color="#567FE3"/>
<stop offset="0.885417" stop-color="#9664C8"/>
</linearGradient>
</defs>
</svg>
