<svg width="375" height="323" viewBox="0 0 375 323" fill="none" xmlns="http://www.w3.org/2000/svg">
<g clip-path="url(#clip0_580_1524)">
<path d="M364.246 57.6171C360.654 57.0843 357.051 59.3882 353.562 64.5267L346.306 75.716L339.656 79.1388C338.694 79.6354 338.241 80.7607 338.59 81.7859L341.243 89.5608C338.568 96.6835 331.647 112.468 325.183 117.928C324.516 113.749 322.99 106.701 319.862 102.297C321.106 99.3775 323.443 92.2515 319.845 86.7461C327.416 82.9591 334.123 76.1761 338.238 67.551C346.851 49.4884 342.039 29.1453 327.51 22.2016C313.403 15.4566 295.254 23.8272 286.331 40.8615C284.401 39.0529 282.232 37.2239 279.74 35.3815C277.903 31.6794 266.47 9.86788 248.265 1.05076C247.97 0.907969 247.644 0.833374 247.316 0.833374C246.019 0.833374 215.477 1.01666 192.51 16.8713C190.393 17.0716 183.342 17.9089 175.798 20.4987C175.403 20.0983 174.856 19.8487 174.248 19.8487H101.2C99.9947 19.8487 99.0196 20.8248 99.0196 22.0311C99.0196 23.2374 99.9947 24.2135 101.2 24.2135H167.373C163.347 26.4615 159.661 29.3555 157.087 33.1351C156.894 33.4185 156.77 33.7446 156.725 34.0856C156.681 34.4437 155.657 42.9475 161.158 49.3946C164.84 53.7083 170.461 56.0037 177.864 56.2169C178.438 56.17 179.23 55.9185 179.656 55.3601L185.069 48.2757L186.28 52.2164C186.461 52.8068 186.885 53.2927 187.443 53.5528C188.967 54.2646 192.19 54.9679 194.601 53.0754C197.258 50.9952 197.954 46.7774 196.721 40.1875C197.124 38.15 198.431 34.3393 200.315 34.0686L245.289 28.1671C245.408 29.489 245.618 31.2758 245.989 33.3551C246.948 38.7289 248.998 46.0456 253.29 52.3406C251.647 54.3168 247.669 58.5456 241.064 62.9943H75.4437C74.2386 62.9943 73.2635 63.9705 73.2635 65.1768C73.2635 66.3831 74.2386 67.3592 75.4437 67.3592H233.94C230.373 70.2231 196.597 97.4257 189.659 106.594C184.057 106.893 160.536 109.703 152.284 134.309H58.4404C57.2353 134.309 56.2602 135.285 56.2602 136.492C56.2602 137.698 57.2353 138.674 58.4404 138.674H151.026C150.672 140.172 150.328 141.684 150.085 143.324C147.612 145.648 138.07 154.742 128.776 164.987H55.8301C54.625 164.987 53.6499 165.963 53.6499 167.169C53.6499 168.376 54.625 169.352 55.8301 169.352H124.901C124.187 170.174 123.488 170.994 122.793 171.819C122.773 171.84 122.757 171.863 122.738 171.885C116.836 178.899 111.754 185.88 109.718 191.155C108.488 192.416 103.229 197.512 96.3603 200.036C84.929 201.459 64.2934 209.164 65.1642 228.476C54.0246 241.566 40.858 255.236 37.1385 256.513C34.8156 256.291 23.9783 255.554 18.3446 260.551C16.0324 262.602 14.8592 265.298 14.8592 268.561L14.8997 284.741L10.6009 306.871C10.5413 307.175 10.5477 307.493 10.6201 307.796C10.6584 307.953 14.2567 322.175 29.2202 322.173C30.7 322.173 32.2925 322.032 34.0022 321.728C34.5792 321.625 35.0902 321.293 35.4202 320.809C35.7503 320.323 35.8716 319.726 35.7566 319.151L34.0512 310.615L46.4555 282.825L109.589 230.652C113.04 230.002 127.314 226.945 131.086 220.281C135.751 217.229 169.381 195.085 181.811 183.495L215.177 207.506L216.382 208.561C209.483 209.669 197.739 212.796 195.661 221.37L158.433 232.602C156.902 232.866 143.35 235.375 139.215 242.144C137.94 244.232 137.653 246.577 138.353 248.804C138.496 249.379 140.063 254.673 150.717 263.454C158.134 269.82 166.011 278.328 166.96 281.981H125.81C124.605 281.981 123.63 282.958 123.63 284.164C123.63 285.37 124.605 286.346 125.81 286.346H171.154C174.828 288.271 181.121 290.601 186.64 287.825C187.794 287.414 189.825 286.044 190.125 283.52C190.589 279.618 186.88 275.176 178.462 269.571C177.808 267.806 176.054 261.967 179.013 256.404C179.077 256.325 185.62 248.614 205.981 248.574C208.044 248.164 256.254 238.45 263.91 221.199C265.741 219.075 272.814 208.497 255.2 187.342L225.484 147.681C251.84 135.162 281.755 120.388 291.227 113.521C293.801 119.65 300.555 134.501 309.361 144.405C310.249 146.125 315.02 154.814 321.657 156.645C324.38 157.393 327.05 156.948 329.562 155.311C329.877 155.106 330.133 154.823 330.305 154.49L354.724 107.564C358.054 104.045 378.677 81.5067 373.82 68.7531C373.497 67.713 370.484 58.5485 364.246 57.6171ZM128.223 216.941C127.876 217.167 127.599 217.489 127.429 217.866C125.542 222.02 114.673 225.338 108.266 226.455C107.894 226.521 107.543 226.681 107.251 226.922L43.2853 279.784C43.0255 279.999 42.819 280.27 42.6827 280.577L29.7866 309.469C29.6013 309.882 29.5502 310.342 29.6396 310.788L31.0257 317.723C19.2324 318.684 15.6491 309.356 14.9784 307.192L19.2197 285.157V268.561C19.2197 266.574 19.8776 265.025 21.2317 263.821C24.4233 260.987 30.8125 260.592 34.7549 260.738C34.5114 262.751 34.4126 265.539 35.3053 267.589C35.663 268.409 36.4635 268.9 37.3067 268.9C37.5962 268.9 37.8922 268.842 38.1753 268.718C39.2804 268.237 39.785 266.949 39.3038 265.845C38.7473 264.566 38.9256 262.108 39.2303 260.297C46.9782 256.411 65.2467 235.128 69.0563 230.63C69.4289 230.191 69.612 229.622 69.5673 229.047C67.9129 208.073 95.9324 204.484 97.1247 204.341C97.2886 204.322 97.4483 204.283 97.6016 204.228C106.608 201.01 112.953 194.098 113.219 193.806C113.41 193.593 113.559 193.346 113.655 193.077C115.176 188.851 119.13 183.179 123.956 177.247C127.443 183.86 136.428 199.312 146.474 204.662C136.537 211.508 128.404 216.824 128.223 216.941ZM351.358 104.776C351.215 104.923 351.094 105.091 351 105.275L326.72 151.933C325.438 152.64 324.156 152.804 322.819 152.438C318.401 151.223 314.33 144.637 313.134 142.201C313.046 142.02 312.932 141.852 312.797 141.703C303.737 131.624 296.688 115.344 294.736 110.578C297.601 107.861 304.249 100.479 301.479 92.6724C301.074 91.5386 299.822 90.9482 298.694 91.3468C297.559 91.7496 296.967 92.9985 297.37 94.1345C299.438 99.9622 293.025 106.257 291.229 107.874C290.863 108.047 290.591 108.33 290.406 108.717C290.337 108.813 290.253 108.898 290.201 109.003C287.564 112.326 252.717 129.953 221.206 144.878C220.614 145.16 220.18 145.69 220.023 146.327C219.865 146.963 220.001 147.636 220.395 148.16L251.781 190.049C268.439 210.059 260.614 218.35 260.561 218.407C260.331 218.623 260.15 218.885 260.033 219.177C254.859 231.89 218.651 241.615 205.559 244.249C183.263 244.249 175.9 253.305 175.392 254.002C170.633 262.851 174.548 271.566 174.717 271.932C174.889 272.303 175.16 272.619 175.502 272.845C185.803 279.599 185.829 282.657 185.797 282.983C185.752 283.471 185.156 283.721 184.932 283.819C180.991 285.799 176.204 284.023 173.281 282.515C173.056 282.325 172.796 282.191 172.506 282.104C172.056 281.853 171.657 281.618 171.357 281.429C169.783 274.373 156.374 262.561 153.521 260.114C144.015 252.276 142.584 247.742 142.548 247.625C142.186 246.464 142.309 245.447 142.935 244.422C145.217 240.683 153.003 238.256 157.57 237.225C158.622 239.286 160.692 242.8 163.492 244.799C163.875 245.074 164.318 245.206 164.757 245.206C165.438 245.206 166.109 244.889 166.532 244.292C167.233 243.311 167.005 241.947 166.026 241.248C164.372 240.067 162.898 237.87 161.909 236.097L198.203 225.164C199.044 224.91 199.651 224.175 199.743 223.301C200.59 215.255 215.839 212.664 221.643 212.342C222.529 212.295 223.295 211.713 223.585 210.875C223.874 210.036 223.627 209.104 222.959 208.52L221.225 207.007C225.778 205.631 233.561 202.473 243.096 195.313C244.06 194.59 244.256 193.222 243.532 192.259C242.809 191.293 241.439 191.097 240.481 191.822C228.607 200.736 219.656 203.041 217.131 203.549L184.884 180.331C186.905 177.98 190.421 173.353 194.481 165.575C195.037 164.507 194.624 163.188 193.557 162.63C192.493 162.073 191.173 162.483 190.615 163.555C184.832 174.639 180.18 179.011 180.133 179.053C180.122 179.064 180.118 179.079 180.107 179.089C180.095 179.101 180.079 179.105 180.067 179.117C174.487 184.703 162.001 193.846 150.677 201.747C141.312 198.819 131.003 181.627 126.986 173.617C138.653 159.99 153.393 146.201 153.619 145.991C153.99 145.648 154.228 145.185 154.296 144.686C154.586 142.548 154.982 140.55 155.465 138.674H199.153C200.358 138.674 201.333 137.698 201.333 136.492C201.333 135.285 200.358 134.309 199.153 134.309H156.873C165.594 110.912 189.65 110.973 190.785 110.923C191.49 110.867 192.276 110.537 192.678 109.885C195.827 104.762 215.939 87.7111 229.058 76.9156C230.581 80.9909 234.118 87.9823 241.499 92.6021C246.285 95.5987 251.876 97.1012 258.206 97.1012C261.952 97.1012 265.956 96.5748 270.204 95.522C271.373 95.2321 272.086 94.0492 271.797 92.8792C271.505 91.7091 270.3 91.0015 269.157 91.285C258.941 93.8191 250.433 93.0284 243.856 88.9299C236.483 84.3386 233.558 76.8101 232.67 73.9571C234.162 72.741 235.532 71.629 236.657 70.7224C247.048 65.2951 253.25 59.0741 256.042 55.8444C258.561 58.6417 261.64 61.0791 265.46 62.7876C266.57 63.2885 267.851 62.7833 268.341 61.6857C268.833 60.5839 268.339 59.2944 267.24 58.8021C250.318 51.2339 249.502 25.9015 249.496 25.6479C249.481 25.0277 249.202 24.4437 248.734 24.0409C248.265 23.6424 247.646 23.4548 247.033 23.5358L199.723 29.7442C194 30.5626 192.503 38.9087 192.352 39.8571C192.312 40.1108 192.316 40.3708 192.365 40.6223C193.726 47.5703 192.371 49.2753 191.922 49.6312C191.454 50.0063 190.715 49.9743 190.115 49.8507L187.992 42.9432C187.751 42.1611 187.095 41.5814 186.291 41.4364C185.482 41.2936 184.67 41.6112 184.176 42.2591L176.886 51.803C171.338 51.4556 167.173 49.7037 164.499 46.5877C160.911 42.4104 160.918 36.8179 161.014 35.1364C169.783 23.0605 193.198 21.1914 193.436 21.1722C193.83 21.1445 194.207 21.0081 194.53 20.7822C214.879 6.47061 242.789 5.30054 246.824 5.20676C264.664 14.1518 275.936 37.5234 276.049 37.76C276.204 38.0882 276.44 38.3716 276.734 38.5848C278.439 39.8292 279.995 41.0619 281.414 42.2799C281.769 42.5841 282.041 42.8785 282.379 43.1811C283.392 44.0888 284.405 44.997 285.273 45.886C285.322 45.9364 285.357 45.9843 285.405 46.0344L285.412 46.0485C287.143 47.838 288.541 49.5755 289.745 51.2707C289.971 51.5891 290.226 51.9135 290.436 52.2282C290.897 52.9224 291.29 53.5994 291.674 54.2739C291.855 54.5912 292.048 54.912 292.213 55.225C292.562 55.8892 292.865 56.5392 293.144 57.1815C293.274 57.4802 293.404 57.7783 293.519 58.0721C293.771 58.7091 293.995 59.3357 294.184 59.9479C294.267 60.2167 294.34 60.4805 294.412 60.7442C294.579 61.3565 294.733 61.9617 294.845 62.5457C294.888 62.774 294.916 62.9927 294.952 63.2165C295.047 63.8101 295.137 64.4007 295.183 64.9613C295.193 65.0891 295.19 65.2071 295.198 65.3334C295.278 66.5986 295.249 67.7767 295.136 68.8492C295.129 68.9105 295.129 68.9795 295.122 69.04C295.084 69.377 295.023 69.6786 294.971 69.9948C294.918 70.3142 294.87 70.6432 294.805 70.9406C294.756 71.1694 294.7 71.3756 294.647 71.5906C294.556 71.9463 294.465 72.2993 294.365 72.6171C294.323 72.7519 294.281 72.879 294.238 73.0066C294.108 73.3902 293.976 73.7568 293.846 74.0751C293.832 74.1092 293.818 74.1447 293.804 74.1782C293.336 75.2988 292.918 75.9717 292.808 76.1412C291.971 77.2617 291.145 78.3297 290.331 79.3477C289.577 80.2876 289.728 81.6601 290.669 82.4146C291.037 82.7111 291.473 82.8283 291.912 82.8526C291.953 82.855 291.988 82.8941 292.03 82.8941C292.066 82.8941 292.098 82.8728 292.134 82.8709C292.343 82.8611 292.538 82.8054 292.736 82.7369C292.826 82.706 292.917 82.6964 293.002 82.6538C293.276 82.5166 293.53 82.3312 293.733 82.0757C294.591 81.0058 295.462 79.8784 296.403 78.6145C296.41 78.6049 296.453 78.5367 296.511 78.4403C296.524 78.42 296.525 78.4176 296.54 78.3934C296.609 78.2778 296.701 78.1158 296.812 77.909C296.833 77.8715 296.85 77.8382 296.871 77.798C296.987 77.5806 297.114 77.3291 297.255 77.0291C297.279 76.9766 297.304 76.9196 297.329 76.8645C297.456 76.5885 297.588 76.2834 297.724 75.9472C297.756 75.8676 297.786 75.798 297.818 75.7152C297.955 75.3667 298.091 74.9804 298.226 74.5757C298.275 74.4281 298.322 74.2853 298.371 74.1306C298.498 73.7221 298.62 73.2882 298.735 72.831C298.785 72.6347 298.83 72.4343 298.877 72.2295C298.976 71.7875 299.07 71.3308 299.15 70.8503C299.193 70.5958 299.227 70.3321 299.263 70.067C299.315 69.6887 299.358 69.3 299.393 68.9012C299.426 68.5391 299.451 68.1731 299.469 67.7951C299.489 67.3531 299.498 66.901 299.495 66.4377C299.493 66.106 299.488 65.7746 299.473 65.4325C299.447 64.8619 299.401 64.2776 299.334 63.679C299.293 63.3127 299.237 62.9403 299.179 62.5641C299.109 62.1077 299.021 61.6431 298.923 61.1729C298.814 60.6441 298.684 60.1089 298.538 59.5632C298.416 59.1109 298.28 58.6537 298.13 58.1904C297.973 57.7013 297.803 57.2108 297.613 56.7105C297.385 56.1111 297.132 55.504 296.854 54.8893C296.673 54.4889 296.486 54.0885 296.282 53.6817C295.904 52.9278 295.49 52.1648 295.03 51.3914C294.814 51.0293 294.578 50.6641 294.343 50.298C293.861 49.5446 293.344 48.7846 292.777 48.016C292.539 47.6944 292.289 47.3718 292.035 47.0476C291.395 46.2267 290.7 45.3985 289.955 44.5635C289.81 44.4016 289.701 44.2439 289.551 44.0813C297.163 28.3013 313.315 20.26 325.632 26.1402C337.989 32.0481 341.881 49.7804 334.304 65.6712C328.985 76.82 318.997 84.6439 308.856 85.6051C307.658 85.7181 306.778 86.7816 306.893 87.9836C307 89.1132 307.949 89.9593 309.061 89.9593C309.129 89.9593 309.199 89.9572 309.269 89.9487C311.496 89.7377 313.699 89.1641 315.87 88.4176C315.935 88.5844 315.981 88.7562 316.089 88.9086C319.474 93.6699 315.433 101.496 315.393 101.575C314.969 102.378 315.086 103.365 315.691 104.043C319.321 108.133 320.963 118.201 321.288 121.737C321.352 122.419 321.731 123.03 322.312 123.391C322.896 123.753 323.609 123.819 324.246 123.572C334.691 119.529 344.519 93.3161 345.605 90.3387C345.776 89.8698 345.782 89.3583 345.62 88.8852L343.325 82.1588L348.816 79.3327C349.154 79.158 349.442 78.898 349.648 78.5783L357.194 66.9415C359.566 63.444 361.876 61.658 363.601 61.933C366.388 62.3464 368.883 67.5809 369.701 70.1768C373.133 79.1964 357.622 98.2095 351.358 104.776Z" fill="#F5F7FA"/>
<path d="M23.363 67.3591H45.0099C46.215 67.3591 47.1901 66.383 47.1901 65.1767C47.1901 63.9704 46.215 62.9943 45.0099 62.9943H23.363C22.1579 62.9943 21.1827 63.9704 21.1827 65.1767C21.1827 66.383 22.1579 67.3591 23.363 67.3591Z" fill="#F5F7FA"/>
<path d="M124.395 100.967C125.6 100.967 126.575 99.9912 126.575 98.7848C126.575 97.5785 125.6 96.6024 124.395 96.6024H107.913C106.708 96.6024 105.733 97.5785 105.733 98.7848C105.733 99.9912 106.708 100.967 107.913 100.967H124.395Z" fill="#F5F7FA"/>
<path d="M89.1234 98.7848C89.1234 97.5785 88.1483 96.6024 86.9432 96.6024H2.64654C1.44145 96.6024 0.466309 97.5785 0.466309 98.7848C0.466309 99.9912 1.44145 100.967 2.64654 100.967H86.9432C88.1483 100.967 89.1234 99.9912 89.1234 98.7848Z" fill="#F5F7FA"/>
<path d="M16.8968 134.309C15.6917 134.309 14.7166 135.285 14.7166 136.492C14.7166 137.698 15.6917 138.674 16.8968 138.674H36.9362C38.1413 138.674 39.1164 137.698 39.1164 136.492C39.1164 135.285 38.1413 134.309 36.9362 134.309H16.8968Z" fill="#F5F7FA"/>
<path d="M50.7415 190.554C50.7415 189.347 49.7663 188.371 48.5612 188.371H6.87707C5.67198 188.371 4.69684 189.347 4.69684 190.554C4.69684 191.76 5.67198 192.736 6.87707 192.736H48.5612C49.7663 192.736 50.7415 191.76 50.7415 190.554Z" fill="#F5F7FA"/>
<path d="M98.0189 286.346C99.224 286.346 100.199 285.37 100.199 284.164C100.199 282.957 99.224 281.981 98.0189 281.981H75.4437C74.2386 281.981 73.2635 282.957 73.2635 284.164C73.2635 285.37 74.2386 286.346 75.4437 286.346H98.0189Z" fill="#F5F7FA"/>
</g>
<defs>
<clipPath id="clip0_580_1524">
<rect width="375" height="323" fill="white"/>
</clipPath>
</defs>
</svg>
