<svg width="40" height="40" viewBox="0 0 40 40" fill="none" xmlns="http://www.w3.org/2000/svg">
<path fill-rule="evenodd" clip-rule="evenodd" d="M20.7298 27.0455L28.0575 31.7121L27.9736 28.7973C27.9424 27.7139 28.7316 26.8158 29.759 26.6598C32.1597 26.2955 34 24.2192 34 21.7168V12C34 9.23858 31.7614 7 29 7H11C8.23858 7 6 9.23858 6 12V21.7168C6 24.4782 8.23858 26.7168 11 26.7168H19.6018C20.0014 26.7168 20.3928 26.8309 20.7298 27.0455ZM29.9728 28.7397C29.9713 28.6887 30.0087 28.6449 30.0592 28.6372C33.4226 28.1267 36 25.2227 36 21.7168V12C36 8.13401 32.866 5 29 5H11C7.13401 5 4 8.13401 4 12V21.7168C4 25.5828 7.13401 28.7168 11 28.7168H19.6018C19.6208 28.7168 19.6394 28.7222 19.6555 28.7325L29.3786 34.9245C29.7131 35.1376 30.1494 34.8779 30.1377 34.4726L29.9728 28.7397Z" fill="url(#paint0_linear_583_4508)"/>
<defs>
<linearGradient id="paint0_linear_583_4508" x1="4" y1="35.0008" x2="39.7733" y2="29.4888" gradientUnits="userSpaceOnUse">
<stop stopColor="#9D9DE6"/>
<stop offset="0.427083" stopColor="#567FE3"/>
<stop offset="0.885417" stopColor="#9664C8"/>
</linearGradient>
</defs>
</svg>
