<svg width="1000" height="751" viewBox="0 0 1000 751" fill="none" xmlns="http://www.w3.org/2000/svg">
<path d="M845.558 475.398C811.928 706.898 545.101 692.055 495.666 471.328C474.815 363.598 457.857 306.716 454.446 207.174V209.52C475.632 142.201 557.304 93.4587 611.015 80.0523V447.388C611.015 522.416 657.328 583.176 732.562 583.176C798.38 583.176 837.294 536.636 845.99 474.775L845.558 475.398Z" fill="#FF6404"/>
<path d="M820.768 738.784C1045.32 639.577 799.87 95.0851 980.076 17.1364C912.192 23.6002 863.141 62.2393 831.481 122.089V467.352C831.521 476.515 830.895 485.668 829.608 494.74L829.127 497.66C795.498 729.208 528.671 714.318 479.235 493.591C458.385 385.861 441.474 328.979 438.015 229.484V507.189C437.102 657.676 558.121 750.419 721.176 750.419C754.729 750.847 788.193 746.903 820.72 738.689L820.768 738.784Z" fill="#FF6404"/>
<path d="M840.746 745.208C942.355 718.155 999.862 643.606 999.862 513.66V23.5117C819.847 101.46 1065.3 645.952 840.746 745.16V745.208Z" fill="#FF6404"/>
<path d="M542.878 66.4575C-14.4127 157.573 31.804 466.208 0 733.379V0C84.2662 8.04385 140.86 46.4915 169.733 134.064C255.537 74.0704 354.84 26.1904 542.878 66.4575Z" fill="#FF6404"/>
<path d="M561.72 83.6016C4.33332 174.717 50.4539 483.591 18.6499 750.523H173.971V468.509C173.538 292.55 275.676 227.242 406.784 227.242C428.21 159.922 498.977 97.9656 563.209 83.6016H561.72Z" fill="#FF6404"/>
</svg>
